<svg width="200" height="150" viewBox="0 0 200 150" fill="none" xmlns="http://www.w3.org/2000/svg">
<path fill-rule="evenodd" clip-rule="evenodd" d="M62.3431 2.34315C60.8429 0.842855 58.808 0 56.6863 0H8C3.58172 0 0 3.58172 0 8V20V142C0 146.418 3.58172 150 8 150H182C186.418 150 190 146.418 190 142V28C190 23.5817 186.418 20 182 20H83.3137C81.192 20 79.1571 19.1571 77.6569 17.6569L62.3431 2.34315Z" fill="#38D699"/>
<rect x="10" y="10" width="180" height="140" rx="8" fill="#CEFFEC"/>
<path d="M8.93912 37.3671C9.26926 33.2073 12.7412 30 16.914 30H191.34C196.008 30 199.684 33.9798 199.315 38.6329L191.061 142.633C190.731 146.793 187.259 150 183.086 150H8.66009C3.9923 150 0.315855 146.02 0.685153 141.367L8.93912 37.3671Z" fill="#06CC80"/>
</svg>
