<svg width="33" height="40" viewBox="0 0 33 40" fill="none" xmlns="http://www.w3.org/2000/svg">
<path d="M0 3.71901C0 1.66506 1.66506 0 3.71901 0H20.9381C21.4328 0 21.9072 0.197171 22.2562 0.547879L27.1387 5.45455L32.0251 10.365C32.3718 10.7135 32.5665 11.1851 32.5665 11.6766V36.281C32.5665 38.3349 30.9014 40 28.8474 40H3.71901C1.66505 40 0 38.3349 0 36.281V3.71901Z" fill="#676767"/>
<path fill-rule="evenodd" clip-rule="evenodd" d="M20.9426 0H20.457V9.29752C20.457 11.3515 22.1221 13.0165 24.176 13.0165H32.571V11.6766C32.571 11.1851 32.3764 10.7135 32.0296 10.365L27.1433 5.45455L22.2607 0.547879C21.9117 0.197171 21.4374 0 20.9426 0Z" fill="#333333"/>
</svg>
