<svg width="17" height="18" viewBox="0 0 17 18" fill="none" xmlns="http://www.w3.org/2000/svg">
<path id="Vector" d="M16.0264 8.34659L8.79822 15.5748C7.91272 16.4603 6.72652 16.9726 5.50059 16.9989C4.27466 17.0253 3.10942 16.5636 2.2612 15.7154C1.41298 14.8671 0.951267 13.7019 0.977633 12.476C1.004 11.25 1.51628 10.0638 2.40179 9.17834L9.62998 1.95015C10.2203 1.35981 11.0111 1.01829 11.8284 1.00071C12.6457 0.983136 13.4225 1.29094 13.988 1.85642C14.5535 2.4219 14.8613 3.19873 14.8437 4.01602C14.8261 4.83331 14.4846 5.6241 13.8943 6.21444L6.65838 13.4428C6.36321 13.738 5.96781 13.9087 5.55917 13.9175C5.15053 13.9263 4.76211 13.7724 4.47937 13.4897C4.19663 13.2069 4.04273 12.8185 4.05152 12.4099C4.0603 12.0012 4.23107 11.6058 4.52624 11.3106L11.2037 4.64073" stroke="white" stroke-linejoin="round"/>
</svg>
