<svg width="160" height="160" viewBox="0 0 160 160" fill="none" xmlns="http://www.w3.org/2000/svg">
<line x1="22" y1="65" x2="22" y2="93" stroke="white" stroke-width="4"/>
<path d="M42 105H40V105.829L40.5858 106.414L42 105ZM42 71.6668L42.6325 69.7694L40 68.8919V71.6668H42ZM122 105L123.28 106.537L124 105.937V105H122ZM122 71.6668H124V68.8919L121.368 69.7694L122 71.6668ZM82 85.0001L81.3675 86.8975L82 87.1083L82.6325 86.8975L82 85.0001ZM44 105V71.6668H40V105H44ZM82 113C67.2254 113 57.481 110.538 51.4928 108.143C48.4969 106.945 46.4322 105.76 45.1407 104.898C44.4945 104.468 44.0407 104.117 43.7597 103.886C43.6192 103.77 43.5217 103.684 43.465 103.633C43.4366 103.607 43.4184 103.59 43.41 103.582C43.4058 103.578 43.4041 103.576 43.4048 103.577C43.4052 103.577 43.4062 103.578 43.4077 103.579C43.4085 103.58 43.4094 103.581 43.4105 103.582C43.4111 103.583 43.412 103.584 43.4123 103.584C43.4132 103.585 43.4142 103.586 42 105C40.5858 106.414 40.5869 106.415 40.588 106.417C40.5884 106.417 40.5896 106.418 40.5904 106.419C40.5921 106.421 40.5939 106.422 40.5959 106.424C40.6 106.428 40.6046 106.433 40.6099 106.438C40.6204 106.448 40.6335 106.461 40.6492 106.476C40.6805 106.506 40.7221 106.545 40.7743 106.592C40.8787 106.687 41.0254 106.816 41.2169 106.974C41.5999 107.289 42.1617 107.72 42.9218 108.227C44.4428 109.241 46.7531 110.555 50.0072 111.857C56.519 114.462 66.7746 117 82 117V113ZM122 105C120.72 103.464 120.72 103.463 120.721 103.462C120.721 103.462 120.722 103.462 120.723 103.461C120.723 103.461 120.724 103.46 120.724 103.46C120.725 103.459 120.725 103.459 120.725 103.459C120.724 103.46 120.719 103.464 120.712 103.469C120.698 103.481 120.673 103.501 120.635 103.53C120.56 103.588 120.438 103.681 120.267 103.802C119.926 104.046 119.393 104.407 118.659 104.848C117.191 105.728 114.919 106.927 111.782 108.133C105.512 110.545 95.7558 113 82 113V117C96.2442 117 106.488 114.455 113.218 111.867C116.581 110.573 119.059 109.272 120.716 108.278C121.545 107.781 122.167 107.361 122.592 107.057C122.805 106.906 122.967 106.783 123.082 106.695C123.139 106.65 123.184 106.615 123.217 106.588C123.234 106.575 123.247 106.564 123.258 106.555C123.263 106.551 123.267 106.547 123.271 106.544C123.273 106.543 123.275 106.541 123.276 106.54C123.277 106.539 123.278 106.538 123.279 106.538C123.279 106.537 123.28 106.537 122 105ZM120 71.6668V105H124V71.6668H120ZM121.368 69.7694L81.3675 83.1027L82.6325 86.8975L122.632 73.5641L121.368 69.7694ZM82.6325 83.1027L42.6325 69.7694L41.3675 73.5641L81.3675 86.8975L82.6325 83.1027Z" fill="white"/>
<path d="M22 65L82 45L142 65L82 85L22 65Z" stroke="white" stroke-width="4"/>
<path d="M18 92C18 89.7909 19.7909 88 22 88C24.2091 88 26 89.7909 26 92V100H18V92Z" fill="white"/>
</svg>
