<svg width="160" height="160" viewBox="0 0 160 160" fill="none" xmlns="http://www.w3.org/2000/svg">
<path d="M24 116.163V49.855C24.2557 49.665 24.5838 49.4309 24.9844 49.1639C26.1492 48.3873 27.9253 47.3327 30.3123 46.2718C35.0809 44.1524 42.3053 41.9998 52 41.9998C61.6947 41.9998 68.9191 44.1524 73.6877 46.2718C76.0747 47.3327 77.8507 48.3873 79.0156 49.1639C79.4162 49.4309 79.7443 49.665 80 49.855V115.546C80 115.546 80 115.547 80 115.547L79.9982 115.551C79.9964 115.554 79.9932 115.56 79.9878 115.568C79.9639 115.603 79.906 115.664 79.8021 115.718C79.5631 115.842 79.381 115.796 79.3288 115.765C74.5232 112.988 65.4056 109.111 52 109.111C41.6947 109.111 33.9191 111.403 28.6877 113.728C26.7871 114.572 25.2245 115.42 24 116.163Z" stroke="#676767" stroke-width="4"/>
<path d="M136 116.163C134.775 115.42 133.213 114.572 131.312 113.728C126.081 111.403 118.305 109.111 108 109.111C94.5944 109.111 85.4768 112.988 80.6712 115.765C80.619 115.796 80.4369 115.842 80.1979 115.718C80.094 115.664 80.0361 115.603 80.0122 115.568C80.0068 115.56 80.0036 115.554 80.0018 115.551L80 115.547C80 115.547 80 115.546 80 115.546V49.855C80.2557 49.665 80.5838 49.4309 80.9844 49.1639C82.1492 48.3873 83.9253 47.3327 86.3123 46.2718C91.0809 44.1524 98.3053 41.9998 108 41.9998C117.695 41.9998 124.919 44.1524 129.688 46.2718C132.075 47.3327 133.851 48.3873 135.016 49.1639C135.416 49.4309 135.744 49.665 136 49.855V116.163Z" stroke="#676767" stroke-width="4"/>
<line x1="70" y1="118" x2="90" y2="118" stroke="#676767" stroke-width="4"/>
</svg>
